<?xml version="1.0" encoding="utf-8"?>
<!-- Generator: Adobe Illustrator 23.0.2, SVG Export Plug-In . SVG Version: 6.00 Build 0)  -->
<svg version="1.1" id="Layer_1" xmlns="http://www.w3.org/2000/svg" xmlns:xlink="http://www.w3.org/1999/xlink" x="0px" y="0px"
	 viewBox="0 0 841.89 430.46" style="enable-background:new 0 0 841.89 430.46;" xml:space="preserve">
<style type="text/css">
	.st0{opacity:0.3;fill:#FFFFFF;enable-background:new    ;}
	.st1{fill:#FBB92C;}
	.st2{fill:#FFFFFF;}
</style>
<path class="st0" d="M198.8,18.95l124.27,178.54h0.01h-0.04l41.89,60.18c8.26,11.86,19.14,17.79,30.03,17.79h166.68
	c-10.88,0-21.77-5.94-30.02-17.79l-93.23-133.94l0.04,0.01L365.49,18.95c-8.26-11.87-19.14-17.8-30.03-17.8H168.77
	C179.65,1.15,190.54,7.09,198.8,18.95z"/>
<path class="st0" d="M8.89,10.04l117.52,187.45h0.01h-0.04l41.89,60.18c8.26,11.86,19.14,17.79,30.03,17.79h166.68
	c-10.88,0-21.77-5.94-30.02-17.79l-93.23-133.94l0.03,0.01L168.83,18.95C160.57,7.08,149.69,3.37,138.8,3.37H0
	C10.88,3.37,0.63-1.82,8.89,10.04z"/>
<path class="st1" d="M841.89,0.95L587.58,263.08c-8.26,8.25-19.14,12.38-30.02,12.38H390.87c10.88,0,21.77-4.13,30.02-12.38
	L682.82,1.15L841.89,0.95z"/>
<path class="st1" d="M652.85,1.15L390.92,263.07c-8.26,8.25-19.14,12.38-30.03,12.38H194.2c10.88,0,21.77-4.13,30.03-12.38
	L486.16,1.15H652.85z"/>
<g>
	<path class="st2" d="M179.66,352.14c-4.13-4.03-6.19-9.42-6.19-16.16v-30.45c0-6.74,2.05-12.09,6.14-16.06
		c4.09-3.96,9.58-5.94,16.47-5.94c6.81,0,12.28,1.98,16.41,5.94c4.13,3.96,6.19,9.32,6.19,16.06v0.52c0,0.49-0.14,0.89-0.41,1.2
		c-0.28,0.31-0.65,0.47-1.14,0.47l-16.31,0.52c-1.03,0-1.55-0.49-1.55-1.46v-2.61c0-1.18-0.29-2.12-0.88-2.81
		c-0.59-0.69-1.36-1.04-2.32-1.04c-0.96,0-1.74,0.35-2.32,1.04c-0.59,0.7-0.88,1.63-0.88,2.81v33.47c0,1.18,0.29,2.1,0.88,2.76
		c0.58,0.66,1.36,0.99,2.32,0.99c0.96,0,1.74-0.33,2.32-0.99c0.58-0.66,0.88-1.58,0.88-2.76v-2.81c0-0.97,0.52-1.46,1.55-1.46
		l16.31,0.52c0.48,0,0.86,0.16,1.14,0.47c0.27,0.31,0.41,0.71,0.41,1.2v0.42c0,4.45-0.95,8.36-2.84,11.73
		c-1.89,3.37-4.54,5.96-7.95,7.77c-3.41,1.81-7.35,2.71-11.82,2.71C189.26,358.18,183.79,356.17,179.66,352.14z"/>
	<path class="st2" d="M236.6,352.14c-4.16-4.03-6.25-9.45-6.25-16.26v-30.03c0-6.81,2.08-12.23,6.25-16.27
		c4.16-4.03,9.72-6.05,16.67-6.05c6.95,0,12.51,2.02,16.67,6.05c4.16,4.03,6.25,9.45,6.25,16.27v30.03c0,6.81-2.08,12.23-6.25,16.26
		c-4.16,4.03-9.72,6.05-16.67,6.05C246.32,358.18,240.76,356.17,236.6,352.14z M255.85,340.14c0.62-0.83,0.93-1.98,0.93-3.44v-31.7
		c0-1.46-0.31-2.61-0.93-3.44c-0.62-0.83-1.48-1.25-2.58-1.25c-1.1,0-1.96,0.42-2.58,1.25c-0.62,0.83-0.93,1.98-0.93,3.44v31.7
		c0,1.46,0.31,2.61,0.93,3.44c0.62,0.83,1.48,1.25,2.58,1.25C254.37,341.4,255.23,340.98,255.85,340.14z"/>
	<path class="st2" d="M319.03,284.78c0.27-0.28,0.65-0.42,1.14-0.42h16.1c0.48,0,0.86,0.14,1.14,0.42c0.27,0.28,0.41,0.66,0.41,1.15
		v69.86c0,0.49-0.14,0.87-0.41,1.15c-0.28,0.28-0.65,0.42-1.14,0.42h-18.38c-0.9,0-1.45-0.45-1.65-1.36l-7.85-31.59
		c-0.07-0.21-0.21-0.31-0.41-0.31s-0.31,0.14-0.31,0.42l0.21,31.28c0,0.49-0.14,0.87-0.41,1.15c-0.28,0.28-0.65,0.42-1.14,0.42
		h-16.1c-0.48,0-0.86-0.14-1.14-0.42c-0.28-0.28-0.41-0.66-0.41-1.15v-69.86c0-0.49,0.14-0.87,0.41-1.15
		c0.27-0.28,0.65-0.42,1.14-0.42h18.17c0.89,0,1.44,0.45,1.65,1.36l7.95,31.7c0.07,0.28,0.21,0.42,0.41,0.42
		c0.21,0,0.31-0.14,0.31-0.42l-0.1-31.49C318.62,285.44,318.75,285.06,319.03,284.78z"/>
	<path class="st2" d="M397.49,284.78c0.27,0.28,0.41,0.66,0.41,1.15v13.66c0,0.49-0.14,0.87-0.41,1.15
		c-0.28,0.28-0.65,0.42-1.14,0.42h-12.18c-0.41,0-0.62,0.21-0.62,0.63v54.01c0,0.49-0.14,0.87-0.41,1.15
		c-0.28,0.28-0.65,0.42-1.14,0.42h-16.31c-0.48,0-0.86-0.14-1.14-0.42c-0.28-0.28-0.41-0.66-0.41-1.15v-54.01
		c0-0.42-0.21-0.63-0.62-0.63h-11.87c-0.48,0-0.86-0.14-1.14-0.42c-0.28-0.28-0.41-0.66-0.41-1.15v-13.66
		c0-0.49,0.14-0.87,0.41-1.15c0.27-0.28,0.65-0.42,1.14-0.42h44.7C396.83,284.36,397.21,284.5,397.49,284.78z"/>
	<path class="st2" d="M433.93,355.89l-1.14-7.82c0-0.14-0.07-0.28-0.21-0.42c-0.14-0.14-0.31-0.21-0.52-0.21h-9.08
		c-0.21,0-0.38,0.07-0.52,0.21c-0.14,0.14-0.21,0.28-0.21,0.42l-1.03,7.82c-0.07,0.97-0.62,1.46-1.65,1.46h-16.21
		c-1.1,0-1.55-0.56-1.34-1.67l14.66-69.96c0.21-0.9,0.79-1.36,1.75-1.36h18.79c0.96,0,1.55,0.45,1.76,1.36l14.66,69.96v0.42
		c0,0.83-0.48,1.25-1.45,1.25h-16.62C434.55,357.35,434,356.86,433.93,355.89z M425.05,332.43h4.85c0.48,0,0.65-0.21,0.52-0.63
		l-2.79-18.77c-0.07-0.28-0.17-0.42-0.31-0.42c-0.14,0-0.24,0.14-0.31,0.42l-2.48,18.77C424.54,332.22,424.71,332.43,425.05,332.43z
		"/>
	<path class="st2" d="M468.72,352.14c-4.13-4.03-6.19-9.42-6.19-16.16v-30.45c0-6.74,2.05-12.09,6.14-16.06
		c4.09-3.96,9.58-5.94,16.47-5.94c6.81,0,12.28,1.98,16.41,5.94c4.13,3.96,6.19,9.32,6.19,16.06v0.52c0,0.49-0.14,0.89-0.41,1.2
		c-0.28,0.31-0.65,0.47-1.14,0.47l-16.31,0.52c-1.03,0-1.55-0.49-1.55-1.46v-2.61c0-1.18-0.29-2.12-0.88-2.81
		c-0.59-0.69-1.36-1.04-2.32-1.04c-0.96,0-1.74,0.35-2.32,1.04c-0.59,0.7-0.88,1.63-0.88,2.81v33.47c0,1.18,0.29,2.1,0.88,2.76
		c0.58,0.66,1.36,0.99,2.32,0.99c0.96,0,1.74-0.33,2.32-0.99c0.58-0.66,0.88-1.58,0.88-2.76v-2.81c0-0.97,0.52-1.46,1.55-1.46
		l16.31,0.52c0.48,0,0.86,0.16,1.14,0.47c0.27,0.31,0.41,0.71,0.41,1.2v0.42c0,4.45-0.95,8.36-2.84,11.73
		c-1.89,3.37-4.54,5.96-7.95,7.77c-3.41,1.81-7.35,2.71-11.82,2.71C478.32,358.18,472.85,356.17,468.72,352.14z"/>
	<path class="st2" d="M566.59,284.78c0.27,0.28,0.41,0.66,0.41,1.15v13.66c0,0.49-0.14,0.87-0.41,1.15
		c-0.28,0.28-0.65,0.42-1.14,0.42h-12.18c-0.41,0-0.62,0.21-0.62,0.63v54.01c0,0.49-0.14,0.87-0.41,1.15
		c-0.28,0.28-0.65,0.42-1.14,0.42h-16.31c-0.48,0-0.86-0.14-1.14-0.42c-0.28-0.28-0.41-0.66-0.41-1.15v-54.01
		c0-0.42-0.21-0.63-0.62-0.63h-11.87c-0.48,0-0.86-0.14-1.14-0.42c-0.28-0.28-0.41-0.66-0.41-1.15v-13.66
		c0-0.49,0.14-0.87,0.41-1.15c0.27-0.28,0.65-0.42,1.14-0.42h44.7C565.93,284.36,566.31,284.5,566.59,284.78z"/>
</g>
</svg>
