<?xml version="1.0" encoding="utf-8"?>
<!-- Generator: Adobe Illustrator 23.0.2, SVG Export Plug-In . SVG Version: 6.00 Build 0)  -->
<svg version="1.1" id="Layer_1" xmlns="http://www.w3.org/2000/svg" xmlns:xlink="http://www.w3.org/1999/xlink" x="0px" y="0px"
	 viewBox="0 0 841.89 595.28" style="enable-background:new 0 0 841.89 595.28;" xml:space="preserve">
<style type="text/css">
	.st0{fill:#1492D1;}
	.st1{clip-path:url(#SVGID_2_);}
	.st2{fill:#DAA88D;}
	.st3{fill:#FBB92C;}
	.st4{fill:#333639;}
	.st5{fill:#FFFFFF;}
	.st6{fill:#F2D7BC;}
	.st7{fill:#8C603D;}
</style>
<g>
	<g>
		<path class="st0" d="M570.91,297.64c0-82.83-67.14-149.97-149.96-149.97c-82.83,0-149.97,67.14-149.97,149.97
			c0,82.82,67.14,149.96,149.97,149.96C503.77,447.6,570.91,380.46,570.91,297.64z"/>
	</g>
	<g>
		<defs>
			
				<ellipse id="SVGID_1_" transform="matrix(0.9871 -0.16 0.16 0.9871 -42.1893 71.1655)" cx="420.94" cy="297.64" rx="149.97" ry="149.97"/>
		</defs>
		<clipPath id="SVGID_2_">
			<use xlink:href="#SVGID_1_"  style="overflow:visible;"/>
		</clipPath>
		<g class="st1">
			<rect x="398.99" y="317.26" class="st2" width="43.92" height="66.36"/>
			<path class="st3" d="M393.66,364.16c0,0-41.76,6.11-47.92,12.53c-5.37,5.59-16.53,59.16-19.12,70.92c73.31,0,94.33,0,94.33,0
				v-81.18L393.66,364.16z"/>
			<path class="st3" d="M448.23,364.16c0,0,41.76,6.11,47.93,12.53c5.37,5.59,16.53,59.16,19.12,70.92c-73.31,0-94.33,0-94.33,0
				v-81.18L448.23,364.16z"/>
			<polygon class="st4" points="418.11,374.38 412.55,431.57 420.94,447.39 429.34,431.57 423.78,374.38 			"/>
			<path class="st4" d="M428.44,373.91l-7.5,7.5l-7.5-7.5l7.5-7.49L428.44,373.91z"/>
			<polygon class="st5" points="420.94,366.43 398.65,357.46 393.15,363.04 404.25,387.64 			"/>
			<polygon class="st5" points="420.94,366.43 443.24,357.46 448.73,363.04 437.64,387.64 			"/>
			<rect x="372.63" y="423.16" class="st5" width="27.82" height="6.14"/>
			<rect x="441.45" y="423.16" class="st5" width="27.82" height="6.14"/>
		</g>
	</g>
	<g>
		<path class="st6" d="M421.84,193.85c21.34,0,55.09,12.13,55.09,68.98c0,32.82-10.7,54.32-15.36,60.27
			c-4.29,5.47-28.41,17.13-39.72,17.13C421.84,282.79,421.84,193.85,421.84,193.85z"/>
		<path class="st6" d="M487.54,276.38c0.94-9.08-3.39-17.14-9.66-18c-6.28-0.86-12.13,5.81-13.07,14.89
			c-0.94,9.08,3.39,17.14,9.67,18C480.74,292.13,486.6,285.46,487.54,276.38z"/>
	</g>
	<g>
		<path class="st6" d="M421.84,193.85c-21.34,0-55.09,12.13-55.09,68.98c0,32.82,10.7,54.32,15.36,60.27
			c4.29,5.47,28.41,17.13,39.72,17.13C421.84,282.79,421.84,193.85,421.84,193.85z"/>
		<path class="st6" d="M356.14,276.38c-0.94-9.08,3.39-17.14,9.66-18c6.28-0.86,12.13,5.81,13.07,14.89
			c0.94,9.08-3.39,17.14-9.67,18C362.93,292.13,357.08,285.46,356.14,276.38z"/>
	</g>
	<path class="st5" d="M421.84,318.79c9.95,0,18.01-3.29,18.01-7.34h-36.02C403.83,315.5,411.89,318.79,421.84,318.79z"/>
	<path class="st7" d="M466.23,267.34c2.3-5.86,6.84-9.62,11.65-8.96c0.01,0,0.02,0.01,0.04,0.01c2.18-6.74,2.96-14.76-0.03-23.27
		c-15.89-45.24,2.16-53.32,2.16-53.32s-17.57-0.79-31.21,10.5c9.4-14.57,13.63-18.34,13.63-18.34s-19.74-4.23-40.9,17.39
		c4.7-11.75,10.34-17.73,10.34-17.73s-44.19,0.33-60.17,32.3c-9.11,18.22-9.81,37.96-7.61,52.88c0.54-0.19,1.09-0.35,1.67-0.43
		c2.08-0.28,4.12,0.27,5.94,1.46c0-6.89,0-12.99,0-13.95c8.46-3.76,17.39-8.46,16.92-27.27c19.74,0,30.56,0,30.56,0h31.49
		c0,0-1.41,21.16,15.51,26.33C466.23,253.77,466.23,261.56,466.23,267.34z"/>
</g>
</svg>
