<?xml version="1.0" encoding="utf-8"?>
<!-- Generator: Adobe Illustrator 23.0.2, SVG Export Plug-In . SVG Version: 6.00 Build 0)  -->
<svg version="1.1" id="Layer_1" xmlns="http://www.w3.org/2000/svg" xmlns:xlink="http://www.w3.org/1999/xlink" x="0px" y="0px"
	 viewBox="0 0 657.9 289.15" style="enable-background:new 0 0 657.9 289.15;" xml:space="preserve">
<style type="text/css">
	.st0{fill:#FBB92C;}
	.st1{fill:#FFFFFF;}
</style>
<g>
	<path class="st0" d="M596.94,268.53h-56.21l7.74-7.97h48.46c23.13,0,41.94-20.25,41.94-45.13c0-24.87-18.82-45.11-41.94-45.11
		h-40.49v71.53h6.62v-53.68l7.98,7.74v53.91h-22.57v-87.46h48.45c27.53,0,49.91,23.8,49.91,53.07
		C646.85,244.71,624.47,268.53,596.94,268.53z"/>
	<g>
		<g>
			<path class="st0" d="M233.2,184.97L233.2,184.97c-0.08,0.01-6.68,0.49-10.5,3.6c-3.17,2.56-9.75,7.89-10.35,24.95
				c-0.57,16.49,3.83,21.51,6.47,24.51c3.76,4.26,10.26,6.92,16.98,6.92v6.51c-8.53,0-16.93-3.5-21.88-9.14
				c-3.08-3.47-8.77-9.94-8.08-29.04c0.62-17.62,6.77-24.93,12.71-29.78c5.48-4.43,13.88-4.99,14.43-5.03l0.17-9.52
				c-11.86,0.62-21.29,5.41-28.02,14.25c-6.36,8.36-9.63,19.12-9.63,31.95c0,12.85,3.27,23.55,9.64,31.87
				c7.24,9.57,17.56,14.4,30.71,14.4c13.22,0,23.6-4.84,30.84-14.41c6.23-8.31,9.38-19.03,9.38-31.86c0-12.83-3.14-23.58-9.34-31.89
				c-4.47-5.9-10.29-12.25-17.04-14.49l-0.3-6.32c8.02,2.66,17.22,9.91,22.56,16.89c7.06,9.51,10.65,21.55,10.65,35.81
				c0,14.27-3.6,26.32-10.69,35.78c-8.54,11.3-20.67,17.02-36.04,17.02c-15.31,0-27.39-5.72-35.89-16.98
				c-7.28-9.46-10.97-21.51-10.97-35.82c0-14.29,3.67-26.37,10.94-35.9c7.95-10.43,19.01-16.09,33.05-16.8h6.83v22.3L233.2,184.97z"
				/>
		</g>
	</g>
	<g>
		<g>
			<polygon class="st0" points="310.99,172.63 310.99,242.64 304.15,250.38 304.15,170.55 293.34,170.55 293.34,248.78 
				293.33,261.99 380.51,262.11 388.25,268.98 306.54,268.98 286.48,268.98 286.48,248.78 286.48,172.63 286.48,162.12 
				310.99,162.2 			"/>
		</g>
	</g>
	<polygon class="st0" points="397.36,251.24 352.03,169.56 359.42,169.56 396.7,234.79 396.72,219.95 364.83,162.12 338.34,162.12 
		397.55,268.78 453.98,162.12 444.52,162.12 	"/>
	<polygon class="st0" points="532.23,268.96 458.8,268.96 458.8,219.82 495.23,219.82 495.23,213.62 458.8,213.62 458.8,162.48 
		528.91,162.48 521.17,170.64 466.93,170.64 466.93,205.48 503.38,205.48 503.38,227.97 467.19,228.46 467.19,260.99 539.97,260.81 
			"/>
	<polygon class="st0" points="142.59,251.24 97.26,169.56 104.65,169.56 142.7,234.01 142.72,219.17 110.06,162.12 83.57,162.12 
		142.78,268.78 199.21,162.12 189.75,162.12 	"/>
	<polygon class="st0" points="109.04,268.76 7.52,268.76 7.52,219.64 43.96,219.64 43.96,213.44 7.52,213.44 7.52,162.3 
		77.63,162.3 82.28,170.43 15.68,170.43 15.68,205.29 52.11,205.29 52.11,227.78 15.68,227.78 15.68,260.62 101.3,260.62 	"/>
</g>
<g>
	<path class="st1" d="M30.33,146.32c-7.26-3.09-12.87-7.5-16.79-13.25c-3.94-5.75-5.91-12.44-5.91-20.07v-4
		c0-0.6,0.21-1.12,0.64-1.54c0.42-0.43,0.94-0.64,1.54-0.64h20.7c0.61,0,1.11,0.21,1.54,0.64c0.42,0.42,0.64,0.94,0.64,1.54v2.73
		c0,4.84,2.24,8.93,6.72,12.26c4.47,3.32,10.54,4.99,18.16,4.99c6.42,0,11.2-1.36,14.34-4.09c3.15-2.72,4.73-6.09,4.73-10.08
		c0-2.9-0.97-5.36-2.91-7.35c-1.94-2-4.56-3.75-7.89-5.27c-3.33-1.51-8.63-3.6-15.89-6.27c-8.12-2.78-14.99-5.63-20.61-8.54
		c-5.63-2.9-10.36-6.86-14.17-11.89c-3.81-5.02-5.72-11.23-5.72-18.61c0-7.27,1.87-13.62,5.63-19.07
		c3.76-5.45,8.95-9.62,15.62-12.53c6.66-2.91,14.34-4.37,23.06-4.37c9.2,0,17.41,1.64,24.61,4.91c7.2,3.27,12.84,7.84,16.9,13.71
		c4.05,5.88,6.07,12.69,6.07,20.43v2.72c0,0.61-0.21,1.12-0.63,1.55c-0.42,0.43-0.94,0.63-1.54,0.63H78.28
		c-0.62,0-1.13-0.21-1.54-0.63c-0.43-0.42-0.64-0.93-0.64-1.55v-1.45c0-5.08-2.08-9.41-6.27-12.98c-4.18-3.56-9.89-5.36-17.17-5.36
		c-5.68,0-10.14,1.22-13.34,3.63c-3.2,2.43-4.81,5.75-4.81,9.99c0,3.03,0.94,5.57,2.81,7.63c1.88,2.06,4.66,3.89,8.36,5.54
		c3.69,1.63,9.41,3.84,17.16,6.63c8.6,3.14,15.34,5.92,20.25,8.35c4.91,2.42,9.32,6.02,13.27,10.8c3.93,4.79,5.89,10.98,5.89,18.61
		c0,11.37-4.18,20.36-12.54,26.97c-8.34,6.6-19.67,9.9-33.95,9.9C46.07,150.95,37.59,149.4,30.33,146.32z"/>
	<path class="st1" d="M218.92,23.02c0.42,0.43,0.64,0.94,0.64,1.55v17.79c0,0.61-0.23,1.12-0.64,1.54
		c-0.43,0.43-0.94,0.64-1.54,0.64h-32.5c-0.62,0-0.9,0.3-0.9,0.91v101.87c0,0.61-0.21,1.12-0.64,1.55
		c-0.42,0.42-0.94,0.63-1.54,0.63h-21.24c-0.62,0-1.12-0.21-1.54-0.63c-0.43-0.42-0.64-0.94-0.64-1.55V45.45
		c0-0.6-0.31-0.91-0.9-0.91h-31.61c-0.6,0-1.11-0.21-1.54-0.64c-0.42-0.43-0.64-0.93-0.64-1.54V24.57c0-0.61,0.21-1.12,0.64-1.55
		c0.43-0.43,0.95-0.63,1.54-0.63h91.53C217.98,22.39,218.49,22.6,218.92,23.02z"/>
	<path class="st1" d="M268.32,145.5c-7.09-3.63-12.59-8.75-16.53-15.34c-3.94-6.6-5.9-14.19-5.9-22.79v-82.8
		c0-0.61,0.21-1.12,0.63-1.55c0.42-0.43,0.94-0.63,1.55-0.63h21.25c0.61,0,1.11,0.21,1.54,0.63c0.43,0.43,0.64,0.94,0.64,1.55v82.98
		c0,6.42,1.97,11.59,5.9,15.53c3.93,3.93,9.1,5.9,15.53,5.9c6.41,0,11.59-1.97,15.52-5.9c3.93-3.94,5.9-9.12,5.9-15.53V24.57
		c0-0.61,0.21-1.12,0.63-1.55c0.43-0.43,0.95-0.63,1.54-0.63h21.25c0.61,0,1.12,0.21,1.54,0.63c0.42,0.43,0.64,0.94,0.64,1.55v82.8
		c0,8.6-1.97,16.2-5.9,22.79c-3.93,6.59-9.43,11.71-16.52,15.34c-7.09,3.63-15.28,5.45-24.6,5.45
		C283.59,150.95,275.39,149.14,268.32,145.5z"/>
	<path class="st1" d="M372.54,148.87c-0.42-0.42-0.63-0.94-0.63-1.55V24.57c0-0.61,0.21-1.12,0.63-1.55
		c0.42-0.43,0.94-0.63,1.55-0.63h45.4c9.08,0,17.04,1.6,23.88,4.81c6.84,3.21,12.14,7.72,15.89,13.53
		c3.76,5.81,5.63,12.53,5.63,20.16v50.12c0,7.62-1.87,14.34-5.63,20.15c-3.75,5.81-9.05,10.33-15.89,13.53
		c-6.84,3.21-14.8,4.81-23.88,4.81h-45.4C373.48,149.5,372.97,149.29,372.54,148.87z M398.42,127.52h21.98
		c5.56,0,10.08-1.87,13.53-5.63c3.45-3.75,5.24-8.78,5.35-15.07V65.06c0-6.29-1.72-11.32-5.17-15.08
		c-3.45-3.75-8.09-5.62-13.89-5.62h-21.79c-0.61,0-0.91,0.29-0.91,0.91v81.35C397.51,127.23,397.81,127.52,398.42,127.52z"/>
	<path class="st1" d="M495.67,148.87c-0.43-0.42-0.63-0.94-0.63-1.55V24.57c0-0.61,0.21-1.12,0.63-1.55
		c0.42-0.43,0.93-0.63,1.54-0.63h21.25c0.6,0,1.12,0.21,1.54,0.63c0.42,0.43,0.64,0.94,0.64,1.55v122.75c0,0.61-0.21,1.12-0.64,1.55
		c-0.43,0.42-0.94,0.63-1.54,0.63h-21.25C496.6,149.5,496.09,149.29,495.67,148.87z"/>
	<path class="st1" d="M571.58,145.69c-7.44-3.87-13.23-9.29-17.34-16.25c-4.13-6.96-6.19-14.98-6.19-24.06V66.52
		c0-8.96,2.06-16.89,6.19-23.79c4.12-6.9,9.9-12.26,17.34-16.07c7.43-3.81,16.02-5.73,25.77-5.73c9.87,0,18.53,1.91,25.96,5.73
		c7.44,3.81,13.22,9.16,17.34,16.07c4.12,6.9,6.19,14.83,6.19,23.79v38.86c0,9.08-2.06,17.13-6.19,24.15
		c-4.12,7.02-9.91,12.44-17.34,16.26c-7.43,3.81-16.1,5.72-25.96,5.72C587.6,151.5,579.01,149.56,571.58,145.69z M614.04,123.17
		c4.25-4.24,6.37-9.86,6.37-16.89V66.33c0-7.02-2.1-12.67-6.28-16.97c-4.19-4.3-9.79-6.45-16.78-6.45c-6.88,0-12.4,2.15-16.59,6.45
		c-4.19,4.3-6.28,9.95-6.28,16.97v39.95c0,7.02,2.09,12.65,6.28,16.89c4.19,4.24,9.71,6.35,16.59,6.35
		C604.22,129.52,609.79,127.41,614.04,123.17z"/>
</g>
</svg>
