<?xml version="1.0" encoding="utf-8"?>
<!-- Generator: Adobe Illustrator 23.0.2, SVG Export Plug-In . SVG Version: 6.00 Build 0)  -->
<svg version="1.1" id="Layer_1" xmlns="http://www.w3.org/2000/svg" xmlns:xlink="http://www.w3.org/1999/xlink" x="0px" y="0px"
	 viewBox="0 0 841.89 430.46" style="enable-background:new 0 0 841.89 430.46;" xml:space="preserve">
<style type="text/css">
	.st0{opacity:0.3;fill:#FFFFFF;}
	.st1{fill:#FBB92C;}
	.st2{fill:#FFFFFF;}
</style>
<path class="st0" d="M643.09,412.46L518.82,233.92h-0.01h0.04l-41.89-60.18c-8.26-11.86-19.14-17.79-30.03-17.79H280.25
	c10.88,0,21.77,5.94,30.02,17.79l93.23,133.94l-0.04-0.01l72.94,104.79c8.26,11.87,19.14,17.8,30.03,17.8h166.69
	C662.24,430.26,651.35,424.32,643.09,412.46z"/>
<path class="st0" d="M833,421.37L715.48,233.92h-0.01h0.04l-41.89-60.18c-8.26-11.86-19.14-17.79-30.03-17.79H476.91
	c10.88,0,21.77,5.94,30.02,17.79l93.23,133.94l-0.03-0.01l72.93,104.79c8.26,11.87,19.14,15.58,30.03,15.58h138.8
	C831.01,428.04,841.26,433.23,833,421.37z"/>
<path class="st1" d="M0,430.46l254.31-262.13c8.26-8.25,19.14-12.38,30.02-12.38h166.69c-10.88,0-21.77,4.13-30.02,12.38
	L159.07,430.26L0,430.46z"/>
<path class="st1" d="M189.04,430.26l261.93-261.92c8.26-8.25,19.14-12.38,30.03-12.38h166.69c-10.88,0-21.77,4.13-30.03,12.38
	L355.73,430.26L189.04,430.26z"/>
<g>
	<path class="st2" d="M344.23,52.9L335.33,6.3V6.17c0-0.41,0.21-0.62,0.62-0.62h1.37c0.46,0,0.71,0.21,0.75,0.62l7.54,40.97
		c0.05,0.09,0.09,0.14,0.14,0.14c0.05,0,0.09-0.04,0.14-0.14l6.37-40.97c0.09-0.41,0.32-0.62,0.68-0.62h1.3
		c0.41,0,0.64,0.21,0.68,0.62l6.58,40.97c0.05,0.09,0.09,0.14,0.14,0.14c0.04,0,0.09-0.04,0.14-0.14l6.85-40.97
		c0.09-0.41,0.34-0.62,0.75-0.62h1.44c0.23,0,0.4,0.07,0.51,0.21c0.11,0.14,0.15,0.32,0.1,0.55l-8.43,46.59
		c-0.05,0.41-0.3,0.62-0.75,0.62h-1.37c-0.37,0-0.59-0.21-0.69-0.62l-6.44-40.84c-0.05-0.09-0.09-0.14-0.14-0.14
		c-0.05,0-0.09,0.05-0.14,0.14l-6.51,40.84c-0.05,0.41-0.27,0.62-0.68,0.62h-1.3C344.58,53.51,344.33,53.31,344.23,52.9z"/>
	<path class="st2" d="M398.36,52.9l-1.99-9.32c0-0.09-0.03-0.16-0.1-0.21c-0.07-0.05-0.15-0.07-0.24-0.07h-14.11
		c-0.09,0-0.17,0.02-0.24,0.07c-0.07,0.05-0.1,0.11-0.1,0.21l-1.99,9.32c-0.05,0.41-0.3,0.62-0.75,0.62h-1.3
		c-0.23,0-0.4-0.07-0.51-0.21c-0.11-0.14-0.15-0.32-0.1-0.55l10.41-46.59c0.09-0.41,0.34-0.62,0.75-0.62h1.71
		c0.46,0,0.71,0.21,0.75,0.62l10.48,46.59v0.14c0,0.41-0.21,0.62-0.62,0.62h-1.3C398.7,53.51,398.45,53.31,398.36,52.9z
		 M382.19,40.94c0.05,0.07,0.11,0.1,0.21,0.1h13.15c0.09,0,0.16-0.03,0.21-0.1c0.05-0.07,0.05-0.13,0-0.17l-6.65-30.63
		c-0.05-0.14-0.09-0.21-0.14-0.21c-0.05,0-0.09,0.07-0.14,0.21l-6.65,30.63C382.15,40.81,382.15,40.87,382.19,40.94z"/>
	<path class="st2" d="M432.41,52.9l-1.99-9.32c0-0.09-0.03-0.16-0.1-0.21c-0.07-0.05-0.15-0.07-0.24-0.07h-14.11
		c-0.09,0-0.17,0.02-0.24,0.07c-0.07,0.05-0.1,0.11-0.1,0.21l-1.99,9.32c-0.05,0.41-0.3,0.62-0.75,0.62h-1.3
		c-0.23,0-0.4-0.07-0.51-0.21c-0.11-0.14-0.15-0.32-0.1-0.55l10.41-46.59c0.09-0.41,0.34-0.62,0.75-0.62h1.71
		c0.46,0,0.71,0.21,0.75,0.62l10.48,46.59v0.14c0,0.41-0.21,0.62-0.62,0.62h-1.3C432.76,53.51,432.51,53.31,432.41,52.9z
		 M416.24,40.94c0.05,0.07,0.11,0.1,0.21,0.1h13.15c0.09,0,0.16-0.03,0.21-0.1c0.05-0.07,0.05-0.13,0-0.17l-6.65-30.63
		c-0.05-0.14-0.09-0.21-0.14-0.21c-0.05,0-0.09,0.07-0.14,0.21l-6.65,30.63C416.2,40.81,416.2,40.87,416.24,40.94z"/>
	<path class="st2" d="M465.51,52.96l-7.95-22.2c-0.05-0.14-0.14-0.21-0.27-0.21h-7.47c-0.18,0-0.27,0.09-0.27,0.27v21.99
		c0,0.46-0.23,0.68-0.68,0.68h-1.3c-0.46,0-0.68-0.23-0.68-0.68V6.24c0-0.46,0.23-0.68,0.68-0.68h10.14c3.11,0,5.61,1.17,7.5,3.49
		c1.89,2.33,2.84,5.37,2.84,9.11c0,3.15-0.7,5.8-2.09,7.95c-1.39,2.15-3.28,3.52-5.65,4.11c-0.18,0.09-0.25,0.21-0.21,0.34
		l8.02,22.2l0.07,0.27c0,0.32-0.2,0.48-0.62,0.48h-1.23C465.92,53.51,465.64,53.33,465.51,52.96z M449.54,8.22v19.8
		c0,0.18,0.09,0.27,0.27,0.27h7.61c2.37,0,4.29-0.92,5.76-2.77c1.46-1.85,2.19-4.28,2.19-7.3c0-3.11-0.73-5.59-2.19-7.47
		c-1.46-1.87-3.38-2.81-5.76-2.81h-7.61C449.63,7.95,449.54,8.04,449.54,8.22z"/>
	<path class="st2" d="M505.79,52.9L496.89,6.3V6.17c0-0.41,0.21-0.62,0.62-0.62h1.37c0.46,0,0.71,0.21,0.75,0.62l7.54,40.97
		c0.05,0.09,0.09,0.14,0.14,0.14c0.05,0,0.09-0.04,0.14-0.14l6.37-40.97c0.09-0.41,0.32-0.62,0.68-0.62h1.3
		c0.41,0,0.64,0.21,0.68,0.62l6.58,40.97c0.05,0.09,0.09,0.14,0.14,0.14c0.04,0,0.09-0.04,0.14-0.14l6.85-40.97
		c0.09-0.41,0.34-0.62,0.75-0.62h1.44c0.23,0,0.4,0.07,0.51,0.21c0.11,0.14,0.15,0.32,0.1,0.55l-8.43,46.59
		c-0.05,0.41-0.3,0.62-0.75,0.62h-1.37c-0.37,0-0.59-0.21-0.69-0.62l-6.44-40.84c-0.05-0.09-0.09-0.14-0.14-0.14
		c-0.05,0-0.09,0.05-0.14,0.14l-6.51,40.84c-0.05,0.41-0.27,0.62-0.68,0.62h-1.3C506.14,53.51,505.89,53.31,505.79,52.9z"/>
	<path class="st2" d="M546.15,52.83V6.24c0-0.46,0.23-0.68,0.68-0.68h1.3c0.46,0,0.68,0.23,0.68,0.68v46.59
		c0,0.46-0.23,0.68-0.68,0.68h-1.3C546.38,53.51,546.15,53.28,546.15,52.83z M559.27,51.05c-1.9-2.01-2.84-4.68-2.84-8.02v-6.1
		c0-0.46,0.23-0.68,0.68-0.68h1.3c0.46,0,0.68,0.23,0.68,0.68v6.24c0,2.56,0.71,4.61,2.12,6.17c1.42,1.55,3.27,2.33,5.55,2.33
		c2.33,0,4.2-0.78,5.62-2.33c1.42-1.55,2.12-3.61,2.12-6.17V6.24c0-0.46,0.23-0.68,0.68-0.68h1.3c0.46,0,0.68,0.23,0.68,0.68v36.79
		c0,3.33-0.96,6.01-2.88,8.02c-1.92,2.01-4.43,3.01-7.54,3.01C563.67,54.06,561.17,53.06,559.27,51.05z"/>
</g>
<g>
	<path class="st2" d="M336.86,154.48c-0.36-0.36-0.54-0.86-0.54-1.49v-18.4c0-0.81,0.22-1.67,0.67-2.57l25.59-48.98
		c0.27-0.63,0.09-0.95-0.54-0.95h-23.72c-0.63,0-1.12-0.18-1.47-0.54c-0.36-0.36-0.54-0.86-0.54-1.49V62.33
		c0-0.63,0.18-1.13,0.54-1.49c0.36-0.36,0.85-0.54,1.47-0.54h49.31c0.62,0,1.12,0.18,1.47,0.54c0.36,0.36,0.54,0.86,0.54,1.49v18.4
		c0,0.81-0.22,1.67-0.67,2.57l-25.86,48.99c-0.27,0.63-0.09,0.95,0.54,0.95h23.98c0.62,0,1.12,0.18,1.47,0.54
		c0.36,0.36,0.54,0.86,0.54,1.49v17.73c0,0.63-0.18,1.13-0.54,1.49c-0.36,0.36-0.85,0.54-1.47,0.54h-49.31
		C337.71,155.02,337.22,154.84,336.86,154.48z"/>
	<path class="st2" d="M405.59,154.48c-0.36-0.36-0.54-0.86-0.54-1.49V62.33c0-0.63,0.18-1.13,0.54-1.49
		c0.36-0.36,0.85-0.54,1.47-0.54h21.17c0.62,0,1.12,0.18,1.47,0.54c0.36,0.36,0.54,0.86,0.54,1.49v90.66c0,0.63-0.18,1.13-0.54,1.49
		c-0.36,0.36-0.85,0.54-1.47,0.54h-21.17C406.44,155.02,405.95,154.84,405.59,154.48z M448.67,152.72
		c-4.42-2.25-7.84-5.43-10.25-9.54c-2.41-4.1-3.62-8.82-3.62-14.14v-7.85c0-0.63,0.18-1.13,0.54-1.49c0.36-0.36,0.85-0.54,1.47-0.54
		h21.17c0.62,0,1.12,0.18,1.47,0.54c0.36,0.36,0.54,0.86,0.54,1.49v8.12c0,1.44,0.36,2.64,1.07,3.59c0.71,0.95,1.65,1.42,2.81,1.42
		c1.25,0,2.25-0.47,3.02-1.42c0.76-0.95,1.14-2.14,1.14-3.59V62.33c0-0.63,0.18-1.13,0.54-1.49c0.36-0.36,0.85-0.54,1.47-0.54h21.17
		c0.62,0,1.12,0.18,1.47,0.54c0.36,0.36,0.54,0.86,0.54,1.49v66.71c0,5.32-1.23,10.04-3.69,14.14c-2.46,4.11-5.9,7.29-10.32,9.54
		c-4.42,2.26-9.54,3.38-15.34,3.38C458.16,156.11,453.09,154.98,448.67,152.72z"/>
	<path class="st2" d="M549.63,60.84c0.36-0.36,0.85-0.54,1.47-0.54H572c0.62,0,1.12,0.18,1.47,0.54c0.36,0.36,0.54,0.86,0.54,1.49
		v90.66c0,0.63-0.18,1.13-0.54,1.49c-0.36,0.36-0.85,0.54-1.47,0.54h-23.85c-1.16,0-1.88-0.59-2.14-1.76l-10.18-41
		c-0.09-0.27-0.27-0.41-0.54-0.41s-0.4,0.18-0.4,0.54l0.27,40.6c0,0.63-0.18,1.13-0.54,1.49c-0.36,0.36-0.85,0.54-1.47,0.54h-20.9
		c-0.63,0-1.12-0.18-1.47-0.54c-0.36-0.36-0.54-0.86-0.54-1.49V62.33c0-0.63,0.18-1.13,0.54-1.49c0.36-0.36,0.85-0.54,1.47-0.54
		h23.58c1.16,0,1.88,0.59,2.14,1.76l10.32,41.14c0.09,0.36,0.27,0.54,0.54,0.54c0.27,0,0.4-0.18,0.4-0.54l-0.13-40.87
		C549.09,61.7,549.27,61.2,549.63,60.84z"/>
</g>
</svg>
