<?xml version="1.0" encoding="utf-8"?>
<!-- Generator: Adobe Illustrator 23.0.2, SVG Export Plug-In . SVG Version: 6.00 Build 0)  -->
<svg version="1.1" id="Layer_1" xmlns="http://www.w3.org/2000/svg" xmlns:xlink="http://www.w3.org/1999/xlink" x="0px" y="0px"
	 viewBox="0 0 283.46 148.9" style="enable-background:new 0 0 283.46 148.9;" xml:space="preserve">
<style type="text/css">
	.st0{opacity:0.3;fill:#FFFFFF;}
	.st1{fill:#FBB92C;}
	.st2{fill:#333639;}
</style>
<g>
	<path class="st0" d="M0,148.9l85.62-88.26c2.78-2.78,6.44-4.17,10.11-4.17h56.13c-3.66,0-7.33,1.39-10.11,4.17l-88.19,88.19
		L0,148.9z"/>
	<path class="st0" d="M63.65,148.83l88.19-88.19c2.78-2.78,6.44-4.17,10.11-4.17h56.12c-3.66,0-7.33,1.39-10.11,4.17l-88.19,88.19
		L63.65,148.83z"/>
	<path class="st1" d="M216.53,142.84l-41.84-60.12h0h0.01l-14.1-20.26c-2.78-3.99-6.45-5.99-10.11-5.99H94.36
		c3.66,0,7.33,2,10.11,5.99l31.39,45.1l-0.01,0l24.56,35.28c2.78,4,6.44,5.99,10.11,5.99h56.12
		C222.98,148.83,219.31,146.83,216.53,142.84z"/>
	<path class="st1" d="M280.47,145.84L240.9,82.72h0h0.01l-14.11-20.26c-2.78-3.99-6.45-5.99-10.11-5.99h-56.12
		c3.66,0,7.33,2,10.11,5.99l31.39,45.1l-0.01,0l24.56,35.28c2.78,4,6.45,5.24,10.11,5.24h46.73
		C279.8,148.08,283.25,149.83,280.47,145.84z"/>
</g>
<g>
	<path class="st2" d="M113.65,22.31l-3.5-18.33V3.93c0-0.16,0.08-0.24,0.24-0.24h0.54c0.18,0,0.28,0.08,0.3,0.24l2.96,16.12
		c0.02,0.04,0.04,0.05,0.05,0.05c0.02,0,0.04-0.02,0.05-0.05l2.51-16.12c0.04-0.16,0.13-0.24,0.27-0.24h0.51
		c0.16,0,0.25,0.08,0.27,0.24l2.59,16.12c0.02,0.04,0.04,0.05,0.05,0.05c0.02,0,0.04-0.02,0.05-0.05l2.69-16.12
		c0.04-0.16,0.13-0.24,0.3-0.24h0.57c0.09,0,0.16,0.03,0.2,0.08c0.04,0.05,0.06,0.13,0.04,0.22l-3.32,18.33
		c-0.02,0.16-0.12,0.24-0.3,0.24h-0.54c-0.14,0-0.23-0.08-0.27-0.24L117.4,6.25c-0.02-0.04-0.04-0.05-0.05-0.05
		c-0.02,0-0.04,0.02-0.05,0.05l-2.56,16.06c-0.02,0.16-0.11,0.24-0.27,0.24h-0.51C113.79,22.55,113.69,22.47,113.65,22.31z"/>
	<path class="st2" d="M129.53,22.28V3.96c0-0.18,0.09-0.27,0.27-0.27h0.51c0.18,0,0.27,0.09,0.27,0.27v18.33
		c0,0.18-0.09,0.27-0.27,0.27h-0.51C129.62,22.55,129.53,22.46,129.53,22.28z"/>
	<path class="st2" d="M144.81,4.63h-6.5c-0.07,0-0.11,0.04-0.11,0.11v7.79c0,0.07,0.04,0.11,0.11,0.11h4.26
		c0.18,0,0.27,0.09,0.27,0.27v0.4c0,0.18-0.09,0.27-0.27,0.27h-4.26c-0.07,0-0.11,0.04-0.11,0.11v7.82c0,0.07,0.04,0.11,0.11,0.11
		h6.5c0.18,0,0.27,0.09,0.27,0.27v0.4c0,0.18-0.09,0.27-0.27,0.27h-7.38c-0.18,0-0.27-0.09-0.27-0.27V3.96
		c0-0.18,0.09-0.27,0.27-0.27h7.38c0.18,0,0.27,0.09,0.27,0.27v0.4C145.08,4.54,144.99,4.63,144.81,4.63z"/>
	<path class="st2" d="M160.17,22.31l-3.5-18.33V3.93c0-0.16,0.08-0.24,0.24-0.24h0.54c0.18,0,0.28,0.08,0.3,0.24l2.96,16.12
		c0.02,0.04,0.04,0.05,0.05,0.05c0.02,0,0.04-0.02,0.05-0.05l2.51-16.12c0.04-0.16,0.13-0.24,0.27-0.24h0.51
		c0.16,0,0.25,0.08,0.27,0.24l2.59,16.12c0.02,0.04,0.04,0.05,0.05,0.05c0.02,0,0.04-0.02,0.05-0.05l2.69-16.12
		c0.04-0.16,0.13-0.24,0.3-0.24h0.57c0.09,0,0.16,0.03,0.2,0.08c0.04,0.05,0.06,0.13,0.04,0.22l-3.32,18.33
		c-0.02,0.16-0.12,0.24-0.3,0.24h-0.54c-0.14,0-0.23-0.08-0.27-0.24l-2.53-16.06c-0.02-0.04-0.04-0.05-0.05-0.05
		c-0.02,0-0.04,0.02-0.05,0.05l-2.56,16.06c-0.02,0.16-0.11,0.24-0.27,0.24h-0.51C160.31,22.55,160.21,22.47,160.17,22.31z"/>
	<path class="st2" d="M176.04,22.28V3.96c0-0.18,0.09-0.27,0.27-0.27h0.51c0.18,0,0.27,0.09,0.27,0.27v18.33
		c0,0.18-0.09,0.27-0.27,0.27h-0.51C176.13,22.55,176.04,22.46,176.04,22.28z M181.21,21.58c-0.75-0.79-1.12-1.84-1.12-3.15v-2.4
		c0-0.18,0.09-0.27,0.27-0.27h0.51c0.18,0,0.27,0.09,0.27,0.27v2.45c0,1.01,0.28,1.82,0.84,2.43c0.56,0.61,1.28,0.92,2.18,0.92
		c0.92,0,1.65-0.31,2.21-0.92c0.56-0.61,0.84-1.42,0.84-2.43V3.96c0-0.18,0.09-0.27,0.27-0.27h0.51c0.18,0,0.27,0.09,0.27,0.27
		v14.47c0,1.31-0.38,2.36-1.13,3.15c-0.75,0.79-1.74,1.19-2.96,1.19C182.93,22.77,181.95,22.37,181.21,21.58z"/>
</g>
<g>
	<path class="st2" d="M110.54,56.55c-0.12-0.12-0.18-0.29-0.18-0.5v-6.2c0-0.27,0.07-0.56,0.23-0.87l8.62-16.49
		c0.09-0.21,0.03-0.32-0.18-0.32h-7.99c-0.21,0-0.38-0.06-0.5-0.18c-0.12-0.12-0.18-0.29-0.18-0.5v-5.97c0-0.21,0.06-0.38,0.18-0.5
		c0.12-0.12,0.29-0.18,0.5-0.18h16.6c0.21,0,0.38,0.06,0.5,0.18c0.12,0.12,0.18,0.29,0.18,0.5v6.2c0,0.27-0.08,0.56-0.23,0.87
		l-8.71,16.49c-0.09,0.21-0.03,0.32,0.18,0.32h8.08c0.21,0,0.38,0.06,0.5,0.18c0.12,0.12,0.18,0.29,0.18,0.5v5.97
		c0,0.21-0.06,0.38-0.18,0.5c-0.12,0.12-0.29,0.18-0.5,0.18h-16.6C110.82,56.73,110.66,56.67,110.54,56.55z"/>
	<path class="st2" d="M133.68,56.55c-0.12-0.12-0.18-0.29-0.18-0.5V25.52c0-0.21,0.06-0.38,0.18-0.5c0.12-0.12,0.29-0.18,0.5-0.18
		h7.13c0.21,0,0.38,0.06,0.5,0.18c0.12,0.12,0.18,0.29,0.18,0.5v30.53c0,0.21-0.06,0.38-0.18,0.5c-0.12,0.12-0.29,0.18-0.5,0.18
		h-7.13C133.97,56.73,133.8,56.67,133.68,56.55z M148.18,55.96c-1.49-0.76-2.64-1.83-3.45-3.21c-0.81-1.38-1.22-2.97-1.22-4.76
		v-2.64c0-0.21,0.06-0.38,0.18-0.5c0.12-0.12,0.29-0.18,0.5-0.18h7.13c0.21,0,0.38,0.06,0.5,0.18c0.12,0.12,0.18,0.29,0.18,0.5v2.73
		c0,0.49,0.12,0.89,0.36,1.21c0.24,0.32,0.56,0.48,0.95,0.48c0.42,0,0.76-0.16,1.02-0.48c0.26-0.32,0.38-0.72,0.38-1.21V25.52
		c0-0.21,0.06-0.38,0.18-0.5c0.12-0.12,0.29-0.18,0.5-0.18h7.13c0.21,0,0.38,0.06,0.5,0.18c0.12,0.12,0.18,0.29,0.18,0.5v22.46
		c0,1.79-0.41,3.38-1.24,4.76c-0.83,1.38-1.99,2.45-3.47,3.21c-1.49,0.76-3.21,1.14-5.17,1.14
		C151.38,57.1,149.67,56.72,148.18,55.96z"/>
	<path class="st2" d="M182.18,25.02c0.12-0.12,0.29-0.18,0.5-0.18h7.04c0.21,0,0.38,0.06,0.5,0.18c0.12,0.12,0.18,0.29,0.18,0.5
		v30.53c0,0.21-0.06,0.38-0.18,0.5c-0.12,0.12-0.29,0.18-0.5,0.18h-8.03c-0.39,0-0.63-0.2-0.72-0.59l-3.43-13.81
		c-0.03-0.09-0.09-0.14-0.18-0.14s-0.14,0.06-0.14,0.18l0.09,13.67c0,0.21-0.06,0.38-0.18,0.5c-0.12,0.12-0.29,0.18-0.5,0.18h-7.04
		c-0.21,0-0.38-0.06-0.5-0.18c-0.12-0.12-0.18-0.29-0.18-0.5V25.52c0-0.21,0.06-0.38,0.18-0.5c0.12-0.12,0.29-0.18,0.5-0.18h7.94
		c0.39,0,0.63,0.2,0.72,0.59l3.47,13.85c0.03,0.12,0.09,0.18,0.18,0.18c0.09,0,0.14-0.06,0.14-0.18L182,25.52
		C182,25.31,182.06,25.14,182.18,25.02z"/>
</g>
</svg>
