<?xml version="1.0" encoding="utf-8"?>
<!-- Generator: Adobe Illustrator 23.0.2, SVG Export Plug-In . SVG Version: 6.00 Build 0)  -->
<svg version="1.1" id="Layer_1" xmlns="http://www.w3.org/2000/svg" xmlns:xlink="http://www.w3.org/1999/xlink" x="0px" y="0px"
	 viewBox="0 0 113.39 113.39" style="enable-background:new 0 0 113.39 113.39;" xml:space="preserve">
<style type="text/css">
	.st0{fill-rule:evenodd;clip-rule:evenodd;fill:#FFFFFF;}
</style>
<g id="location">
	<g>
		<path class="st0" d="M56.75,20.33c-11.7,0-21.19,9.52-21.19,21.21c0,11.71,9.49,21.23,21.19,21.23c11.68,0,21.19-9.52,21.19-21.23
			C77.94,29.84,68.43,20.33,56.75,20.33z M56.75,59.24c-9.74,0-17.66-7.94-17.66-17.7c0-9.74,7.91-17.68,17.66-17.68
			c9.73,0,17.66,7.94,17.66,17.68C74.4,51.3,66.48,59.24,56.75,59.24z M56.73,0C33.36,0,14.37,18.81,14.37,42.46
			c0,24.76,21.17,50.09,36.64,67.89c0.05,0.07,2.52,2.83,5.6,2.83c0,0,0.25,0,0.27,0c3.05,0,5.55-2.76,5.61-2.83
			c15.44-17.8,36.63-43.13,36.63-67.89C99.13,18.81,80.11,0,56.73,0z M57.16,105.7c-0.08,0.07-0.31,0.23-0.48,0.34
			c-0.03-0.11-0.31-0.32-0.45-0.48C43.27,90.65,21.42,65.5,21.42,42.46c0-19.5,15.84-35.39,35.31-35.39s35.31,15.89,35.31,35.39
			C92.05,65.5,70.21,90.65,57.16,105.7z"/>
	</g>
</g>
</svg>
