<?xml version="1.0" encoding="utf-8"?>
<!-- Generator: Adobe Illustrator 23.0.2, SVG Export Plug-In . SVG Version: 6.00 Build 0)  -->
<svg version="1.1" id="Layer_1" xmlns="http://www.w3.org/2000/svg" xmlns:xlink="http://www.w3.org/1999/xlink" x="0px" y="0px"
	 viewBox="0 0 113.39 113.39" style="enable-background:new 0 0 113.39 113.39;" xml:space="preserve">
<style type="text/css">
	.st0{fill-rule:evenodd;clip-rule:evenodd;fill:#FFFFFF;}
</style>
<g id="mail">
	<g>
		<path class="st0" d="M99.22,13.83H14.16C6.34,13.83,0,21.06,0,29.99v52.45C0,91.34,6.34,98.6,14.16,98.6h85.06
			c7.82,0,14.16-7.26,14.16-16.16V29.99C113.39,21.06,107.05,13.83,99.22,13.83z M7.08,35.06l24.79,21.17L7.08,77.42V35.06z
			 M99.22,90.52H14.16c-3.91,0-7.08-3.62-7.08-8.07l27.76-23.71l15.48,13.25c1.86,1.59,4.12,2.4,6.37,2.4c2.23,0,4.49-0.8,6.38-2.4
			l15.5-13.25l27.73,23.71C106.31,86.91,103.14,90.52,99.22,90.52z M106.31,77.42L81.5,56.22l24.81-21.17V77.42z M60.95,68.75
			c-1.24,1.04-2.71,1.61-4.26,1.61c-1.56,0-3.02-0.56-4.26-1.61L37.79,56.22l-2.94-2.51L7.08,29.99l0,0c0-4.46,3.17-8.07,7.08-8.07
			h85.06c3.91,0,7.08,3.61,7.08,8.07L60.95,68.75z"/>
	</g>
</g>
</svg>
