<?xml version="1.0" encoding="utf-8"?>
<!-- Generator: Adobe Illustrator 23.0.2, SVG Export Plug-In . SVG Version: 6.00 Build 0)  -->
<svg version="1.1" id="Layer_1" xmlns="http://www.w3.org/2000/svg" xmlns:xlink="http://www.w3.org/1999/xlink" x="0px" y="0px"
	 viewBox="0 0 113.39 113.39" style="enable-background:new 0 0 113.39 113.39;" xml:space="preserve">
<style type="text/css">
	.st0{fill-rule:evenodd;clip-rule:evenodd;fill:#FFFFFF;}
</style>
<g id="phone_1_">
	<g>
		<path class="st0" d="M85.22,0h-56.6C22.76,0,18,4.79,18,10.63v92.12c0,5.84,4.76,10.63,10.62,10.63h56.6
			c5.89,0,10.63-4.79,10.63-10.63V10.63C95.85,4.79,91.11,0,85.22,0z M88.77,102.75c0,1.96-1.58,3.55-3.55,3.55h-56.6
			c-1.97,0-3.55-1.58-3.55-3.55v-7.1l63.7-0.01V102.75z M88.77,92.12h-63.7V21.29h63.7V92.12z M88.77,17.72h-63.7v-7.08
			c0-1.93,1.58-3.55,3.55-3.55h56.6c1.97,0,3.55,1.62,3.55,3.55V17.72z M62.23,10.63H51.61c-0.98,0-1.77,0.81-1.77,1.77
			c0,0.98,0.79,1.76,1.77,1.76h10.62c0.98,0,1.77-0.78,1.77-1.76C64,11.44,63.21,10.63,62.23,10.63z M55.16,102.75h3.52
			c0.98,0,1.79-0.83,1.79-1.77c0-1.01-0.81-1.79-1.79-1.79h-3.52c-0.99,0-1.79,0.78-1.79,1.79
			C53.37,101.93,54.16,102.75,55.16,102.75z"/>
	</g>
</g>
</svg>
