<?xml version="1.0" encoding="utf-8"?>
<!-- Generator: Adobe Illustrator 23.0.2, SVG Export Plug-In . SVG Version: 6.00 Build 0)  -->
<svg version="1.1" id="Layer_1" xmlns="http://www.w3.org/2000/svg" xmlns:xlink="http://www.w3.org/1999/xlink" x="0px" y="0px"
	 viewBox="0 0 113.39 113.39" style="enable-background:new 0 0 113.39 113.39;" xml:space="preserve">
<style type="text/css">
	.st0{fill:#FFFFFF;}
</style>
<path class="st0" d="M6.61,4.61c32.7,13.48,65.24,26.73,98.1,40.18C93.27,50.3,82.12,55.68,70.79,61.18
	c12.23,12.21,24.4,24.24,36.69,36.55c-3.73,3.7-7.3,7.32-11.05,11.05C84.4,96.3,72.37,83.98,60.14,71.38
	c-5.31,10.95-10.5,21.81-15.81,32.83C31.75,70.89,19.25,37.93,6.61,4.61 M6.61,0C5.44,0,4.28,0.45,3.4,1.3
	C2.08,2.59,1.65,4.53,2.3,6.25l4.5,11.88c11.1,29.29,22.13,58.36,33.21,87.71c0.65,1.73,2.27,2.9,4.11,2.98c0.07,0,0.14,0,0.2,0
	c1.76,0,3.38-1.01,4.15-2.61l6.01-12.48c2.31-4.81,4.61-9.6,6.93-14.41l7.79,8.02c8,8.23,15.95,16.4,23.9,24.64
	c0.86,0.89,2.04,1.4,3.27,1.41c0.02,0,0.03,0,0.05,0c1.22,0,2.39-0.48,3.25-1.34c1.67-1.66,3.31-3.31,4.94-4.94
	c2.02-2.03,4.04-4.05,6.11-6.1c0.87-0.86,1.36-2.04,1.37-3.26c0-1.23-0.48-2.4-1.35-3.27C103.87,87.58,97.04,80.79,90.21,74
	c-3.86-3.83-7.71-7.67-11.57-11.51c9.33-4.52,18.6-8.99,28.07-13.55c1.64-0.79,2.66-2.47,2.61-4.3c-0.05-1.82-1.18-3.44-2.86-4.13
	L79.68,29.58C55.87,19.85,32.16,10.16,8.37,0.35C7.8,0.11,7.21,0,6.61,0L6.61,0z"/>
</svg>
