<?xml version="1.0" encoding="utf-8"?>
<!-- Generator: Adobe Illustrator 23.0.2, SVG Export Plug-In . SVG Version: 6.00 Build 0)  -->
<svg version="1.1" id="Layer_1" xmlns="http://www.w3.org/2000/svg" xmlns:xlink="http://www.w3.org/1999/xlink" x="0px" y="0px"
	 viewBox="0 0 283.46 283.46" style="enable-background:new 0 0 283.46 283.46;" xml:space="preserve">
<style type="text/css">
	.st0{fill:#1492D1;}
	.st1{clip-path:url(#SVGID_2_);}
	.st2{fill:#DAA88D;}
	.st3{fill:#F1F2F2;}
	.st4{fill:#E7E8E9;}
	.st5{fill:#A1B3C0;}
	.st6{fill:#FFFFFF;}
	.st7{fill:#F2D7BC;}
	.st8{fill:#553829;}
</style>
<g>
	<g>
		<path class="st0" d="M282.45,141.73c0-77.44-62.78-140.23-140.23-140.23C64.78,1.5,2,64.29,2,141.73
			c0,77.45,62.78,140.23,140.23,140.23C219.67,281.96,282.45,219.18,282.45,141.73z"/>
		<g>
			<defs>
				<path id="SVGID_1_" d="M282.45,141.73C282.84,64.29,219.67,1.5,142.23,1.5C64.78,1.5,2,64.29,2,141.73
					c0,77.45,62.78,139.98,140.23,140.23C219.62,282.21,282.06,221.05,282.45,141.73z"/>
			</defs>
			<clipPath id="SVGID_2_">
				<use xlink:href="#SVGID_1_"  style="overflow:visible;"/>
			</clipPath>
			<g class="st1">
				<polygon class="st2" points="162.76,222.13 142.72,270.78 121.69,222.13 121.69,177.1 162.76,177.1 				"/>
				<path class="st3" d="M121.69,203.93c0,0-44.03,5.71-49.79,11.71c-5.02,5.23-15.46,55.32-17.87,66.32c68.55,0,88.2,0,88.2,0
					v-26.41L121.69,203.93z"/>
				<path class="st4" d="M162.76,203.93c0,0,44.03,5.71,49.79,11.71c5.02,5.23,15.46,55.32,17.87,66.32c-68.55,0-88.2,0-88.2,0
					v-26.41L162.76,203.93z"/>
				<g>
					<polygon class="st5" points="142.23,255.55 128.27,207.86 123.12,229.35 					"/>
					<polygon class="st6" points="121.11,198.99 128.44,208.52 123.12,229.35 111.87,214.17 					"/>
				</g>
				<g>
					<polygon class="st5" points="142.23,255.55 154.86,207.3 161.34,229.35 					"/>
					<polygon class="st6" points="163.34,198.99 154.7,207.95 161.34,229.35 173.56,214.17 					"/>
				</g>
			</g>
		</g>
	</g>
	<g>
		<g>
			<path class="st7" d="M143.93,50.45c19.97,0,51.54,11.35,51.54,64.54c0,30.71-10.01,50.83-14.38,56.4
				c-4.01,5.12-26.58,16.03-37.17,16.03C143.93,133.67,143.93,50.45,143.93,50.45z"/>
			<path class="st7" d="M205.41,127.68c0.88-8.5-3.17-16.04-9.04-16.85c-5.88-0.81-11.35,5.43-12.23,13.93
				c-0.88,8.5,3.17,16.04,9.05,16.84C199.05,142.41,204.53,136.17,205.41,127.68z"/>
		</g>
		<g>
			<path class="st7" d="M143.93,50.45c-19.97,0-51.54,11.35-51.54,64.54c0,30.71,10.01,50.83,14.38,56.4
				c4.01,5.12,26.58,16.03,37.17,16.03C143.93,133.67,143.93,50.45,143.93,50.45z"/>
			<path class="st7" d="M82.46,127.68c-0.88-8.5,3.17-16.04,9.04-16.85c5.88-0.81,11.35,5.43,12.23,13.93
				c0.88,8.5-3.17,16.04-9.04,16.84C88.81,142.41,83.34,136.17,82.46,127.68z"/>
		</g>
		<path class="st6" d="M143.93,167.36c9.31,0,16.85-3.08,16.85-6.87h-33.7C127.08,164.28,134.63,167.36,143.93,167.36z"/>
		<path class="st8" d="M185.47,119.21c2.15-5.49,6.4-9,10.9-8.38c0.01,0,0.02,0,0.03,0.01c2.04-6.31,2.77-13.81-0.03-21.77
			c-14.87-42.33,2.02-49.89,2.02-49.89s-16.44-0.74-29.2,9.82c8.8-13.64,12.76-17.16,12.76-17.16s-18.47-3.96-38.27,16.28
			c4.4-11,9.68-16.59,9.68-16.59s-41.35,0.31-56.3,30.23c-8.53,17.05-9.18,35.52-7.12,49.48c0.5-0.18,1.02-0.33,1.56-0.41
			c1.95-0.27,3.85,0.25,5.56,1.36c0-6.45,0-12.16,0-13.05c7.92-3.52,16.28-7.92,15.84-25.51c18.47,0,28.59,0,28.59,0h29.47
			c0,0-1.32,19.8,14.52,24.63C185.47,106.52,185.47,113.8,185.47,119.21z"/>
	</g>
</g>
</svg>
