<?xml version="1.0" encoding="utf-8"?>
<!-- Generator: Adobe Illustrator 23.0.2, SVG Export Plug-In . SVG Version: 6.00 Build 0)  -->
<svg version="1.1" id="Layer_1" xmlns="http://www.w3.org/2000/svg" xmlns:xlink="http://www.w3.org/1999/xlink" x="0px" y="0px"
	 viewBox="0 0 283.46 283.46" style="enable-background:new 0 0 283.46 283.46;" xml:space="preserve">
<style type="text/css">
	.st0{fill:#FBBA30;}
	.st1{clip-path:url(#SVGID_2_);}
	.st2{fill:#DBA98E;}
	.st3{fill:#1B92D1;}
	.st4{fill:#F2D7BC;}
	.st5{fill:#FFFFFF;}
	.st6{fill:#31353B;}
</style>
<g id="men_5_2_">
	<g>
		<path class="st0" d="M282.14,141.74c0-77.54-62.86-140.41-140.41-140.41S1.31,64.19,1.31,141.74s62.86,140.41,140.41,140.41
			C219.26,282.14,282.14,219.28,282.14,141.74z"/>
	</g>
	<g>
		<g>
			<g>
				<g>
					<defs>
						<circle id="SVGID_1_" cx="141.73" cy="141.73" r="140.41"/>
					</defs>
					<clipPath id="SVGID_2_">
						<use xlink:href="#SVGID_1_"  style="overflow:visible;"/>
					</clipPath>
					<g class="st1">
						<rect x="121.68" y="177.15" class="st2" width="41.12" height="45.09"/>
						<path class="st3" d="M206.43,217.91c-9.51-11.02-23.81-13.4-36.87-16.77h-7.02c0,8.87-9.21,16.05-20.56,16.05
							c-11.35,0-20.56-7.18-20.56-16.05h-7c-13.06,3.37-27.38,5.75-36.89,16.77c-5.93,6.87-16.22,64.24-16.22,64.24h24.91h55.76
							h55.76h24.91C222.65,282.15,212.36,224.78,206.43,217.91z"/>
						<path class="st4" d="M203.71,125.34c0.88-8.5-3.17-16.04-9.04-16.84c-5.88-0.8-11.35,5.44-12.23,13.93
							c-0.88,8.5,3.17,16.04,9.05,16.84C197.35,140.07,202.83,133.84,203.71,125.34z"/>
						<g>
							<path class="st4" d="M142.25,185.09c10.58,0,33.15-10.91,37.16-16.03c4.36-5.57,14.37-25.68,14.37-56.39
								c0-53.19-31.57-64.54-51.54-64.54S90.7,59.48,90.7,112.67c0,30.71,10.01,50.82,14.37,56.39
								c4.01,5.12,26.58,16.03,37.16,16.03"/>
							<path class="st4" d="M80.77,125.34c-0.88-8.5,3.17-16.04,9.04-16.84c5.88-0.8,11.35,5.44,12.23,13.93
								c0.88,8.5-3.17,16.04-9.05,16.84C87.13,140.07,81.65,133.84,80.77,125.34z"/>
						</g>
						<path class="st5" d="M142.24,165.02c9.31,0,16.85-3.08,16.85-6.87h-33.7C125.4,161.94,132.94,165.02,142.24,165.02z"/>
						<path class="st6" d="M183.78,116.88c2.15-5.48,6.4-9,10.9-8.38c0.01,0,0.02,0.01,0.04,0.01c2.04-6.31,2.77-13.81-0.03-21.77
							c-14.87-42.33,2.02-49.89,2.02-49.89s-16.44-0.74-29.2,9.82c8.79-13.63,12.75-17.16,12.75-17.16s-18.47-3.96-38.27,16.27
							c4.4-10.99,9.67-16.59,9.67-16.59s-41.34,0.31-56.29,30.22c-8.52,17.05-9.18,35.51-7.12,49.47c0.51-0.18,1.02-0.33,1.56-0.4
							c1.95-0.26,3.85,0.25,5.56,1.37c0-6.45,0-12.15,0-13.05c7.91-3.52,16.27-7.92,15.83-25.51c18.47,0,28.59,0,28.59,0h29.46
							c0,0-1.32,19.8,14.51,24.63C183.78,104.19,183.78,111.47,183.78,116.88z"/>
						<path class="st5" d="M141.99,222.39c15.22,0,27.56-9.51,27.56-21.26h-7.06c0,8.85-9.18,16.03-20.5,16.05
							c-11.33-0.03-20.51-7.2-20.51-16.05h-7.06C114.42,212.88,126.76,222.39,141.99,222.39z"/>
					</g>
				</g>
			</g>
		</g>
	</g>
</g>
</svg>
