<?xml version="1.0" encoding="utf-8"?>
<!-- Generator: Adobe Illustrator 23.0.2, SVG Export Plug-In . SVG Version: 6.00 Build 0)  -->
<svg version="1.1" id="Layer_1" xmlns="http://www.w3.org/2000/svg" xmlns:xlink="http://www.w3.org/1999/xlink" x="0px" y="0px"
	 viewBox="0 0 283.46 283.46" style="enable-background:new 0 0 283.46 283.46;" xml:space="preserve">
<style type="text/css">
	.st0{fill:#1B92D1;}
	.st1{clip-path:url(#SVGID_2_);}
	.st2{fill:#DBA98E;}
	.st3{fill:#FBBA30;}
	.st4{fill:#333639;}
	.st5{fill:#FFFFFF;}
	.st6{fill:#F2D7BC;}
	.st7{fill:#8D613E;}
</style>
<g>
	<g>
		<path class="st0" d="M282.44,141.83c0-77.67-62.96-140.63-140.62-140.63C64.14,1.2,1.18,64.16,1.18,141.83
			c0,77.66,62.96,140.62,140.63,140.62C219.48,282.46,282.44,219.5,282.44,141.83z"/>
	</g>
	<g>
		<g>
			<g>
				<defs>
					<circle id="SVGID_1_" cx="141.81" cy="141.81" r="140.63"/>
				</defs>
				<clipPath id="SVGID_2_">
					<use xlink:href="#SVGID_1_"  style="overflow:visible;"/>
				</clipPath>
				<g class="st1">
					<rect x="121.23" y="160.23" class="st2" width="41.19" height="62.23"/>
					<path class="st3" d="M116.23,204.21c0,0-39.16,5.73-44.94,11.75c-5.04,5.24-15.5,55.48-17.93,66.51c68.75,0,88.46,0,88.46,0
						v-76.13L116.23,204.21z"/>
					<path class="st3" d="M167.4,204.21c0,0,39.16,5.73,44.95,11.75c5.04,5.24,15.5,55.48,17.93,66.51c-68.75,0-88.46,0-88.46,0
						v-76.13L167.4,204.21z"/>
					<polygon class="st4" points="139.15,213.8 133.94,267.43 141.81,282.26 149.69,267.43 144.47,213.8 					"/>
					<path class="st4" d="M148.84,213.36l-7.03,7.03l-7.03-7.03l7.03-7.02L148.84,213.36z"/>
					<polygon class="st5" points="141.81,206.34 120.91,197.93 115.75,203.16 126.16,226.23 					"/>
					<polygon class="st5" points="141.81,206.34 162.72,197.93 167.87,203.16 157.47,226.23 					"/>
					<rect x="96.51" y="259.54" class="st5" width="26.09" height="5.76"/>
					<rect x="161.04" y="259.54" class="st5" width="26.09" height="5.76"/>
				</g>
			</g>
		</g>
	</g>
	<path class="st6" d="M204.26,121.9c0.88-8.51-3.18-16.07-9.06-16.88c-5.89-0.81-11.37,5.45-12.26,13.96
		c-0.88,8.51,3.18,16.07,9.07,16.88C196.03,137.06,202.99,130.49,204.26,121.9z"/>
	<g>
		<path class="st6" d="M142.66,181.78c10.61,0,33.23-10.93,37.25-16.06c4.37-5.58,14.4-25.74,14.4-56.52
			c0-53.32-31.65-64.69-51.66-64.69c-20.01,0-51.66,11.37-51.66,64.69c0,30.78,10.03,50.94,14.4,56.52
			c4.02,5.13,26.64,16.06,37.25,16.06"/>
		<path class="st6" d="M81.04,121.9c-0.88-8.51,3.18-16.07,9.06-16.88c5.89-0.81,11.37,5.45,12.26,13.96
			c0.88,8.51-3.18,16.07-9.07,16.88C87.41,136.67,81.92,130.41,81.04,121.9z"/>
	</g>
	<path class="st5" d="M142.65,161.67c9.33,0,16.89-3.09,16.89-6.88h-33.78C125.76,158.58,133.32,161.67,142.65,161.67z"/>
	<path class="st7" d="M184.28,113.42c2.16-5.5,6.41-9.02,10.92-8.4c0.01,0,0.02,0.01,0.04,0.01c2.04-6.32,2.78-13.84-0.03-21.82
		c-14.9-42.42,2.03-50,2.03-50s-16.48-0.74-29.27,9.85c8.81-13.66,12.78-17.2,12.78-17.2s-18.51-3.97-38.35,16.31
		c4.41-11.02,9.7-16.63,9.7-16.63s-41.44,0.31-56.42,30.29c-8.54,17.09-9.2,35.6-7.14,49.59c0.51-0.18,1.02-0.33,1.57-0.4
		c1.95-0.26,3.86,0.25,5.57,1.37c0-6.46,0-12.18,0-13.08c7.93-3.53,16.31-7.93,15.87-25.57c18.51,0,28.66,0,28.66,0h29.53
		c0,0-1.32,19.84,14.54,24.69C184.28,100.7,184.28,108,184.28,113.42z"/>
</g>
</svg>
