<?xml version="1.0" encoding="utf-8"?>
<!-- Generator: Adobe Illustrator 23.0.2, SVG Export Plug-In . SVG Version: 6.00 Build 0)  -->
<svg version="1.1" id="Layer_1" xmlns="http://www.w3.org/2000/svg" xmlns:xlink="http://www.w3.org/1999/xlink" x="0px" y="0px"
	 viewBox="0 0 283.46 283.46" style="enable-background:new 0 0 283.46 283.46;" xml:space="preserve">
<style type="text/css">
	.st0{fill:#1492D1;}
	.st1{clip-path:url(#SVGID_2_);}
	.st2{fill:#DBA98E;}
	.st3{fill:#CFE1EA;}
	.st4{fill:#FFFFFF;}
	.st5{fill:#F2D7BC;}
	.st6{fill:#31353B;}
</style>
<g>
	<g id="men_1_2_">
		<g>
			<g>
				<path class="st0" d="M282.37,141.73c0-77.49-62.81-140.3-140.29-140.3c-77.49,0-140.3,62.81-140.3,140.3
					c0,77.48,62.81,140.3,140.3,140.3C219.56,282.02,282.37,219.21,282.37,141.73z"/>
			</g>
		</g>
		<g>
			<g>
				<g>
					<g>
						<defs>
							<path id="SVGID_1_" d="M282.37,141.73c0-77.49-62.81-140.3-140.3-140.3S1.77,64.24,1.77,141.73s62.81,140.3,140.3,140.3
								C219.56,282.02,282.37,219.21,282.37,141.73z"/>
						</defs>
						<clipPath id="SVGID_2_">
							<use xlink:href="#SVGID_1_"  style="overflow:visible;"/>
						</clipPath>
						<g class="st1">
							<g>
								<rect x="121.53" y="177.12" class="st2" width="41.09" height="45.05"/>
								<path class="st3" d="M212.44,215.68c-5.77-6.01-44.84-11.72-44.84-11.72l-25.53,2.12l-25.53-2.12
									c0,0-39.07,5.71-44.84,11.72c-5.03,5.24-15.47,55.35-17.88,66.35c67.85,0,87.82,0,88.24,0c0,0,0.01,0,0.01,0
									c0.42,0,20.4,0,88.24,0C227.91,271.03,217.46,220.92,212.44,215.68z"/>
								<polygon class="st4" points="142.08,206.09 121.21,197.69 116.08,202.91 126.46,225.92 								"/>
								<polygon class="st4" points="142.08,206.09 162.93,197.69 168.08,202.91 157.69,225.92 								"/>
							</g>
						</g>
					</g>
				</g>
			</g>
		</g>
	</g>
	<g>
		<path class="st5" d="M204.26,126.02c0.88-8.49-3.17-16.02-9.03-16.83c-5.87-0.8-11.34,5.43-12.22,13.92s3.17,16.02,9.04,16.83
			C197.91,140.73,203.38,134.51,204.26,126.02z"/>
		<g>
			<path class="st5" d="M142.85,185.7c10.57,0,33.12-10.9,37.13-16.01c4.36-5.56,14.36-25.66,14.36-56.34
				c0-53.15-31.55-64.49-51.5-64.49s-51.5,11.34-51.5,64.49c0,30.68,10,50.78,14.36,56.34c4.01,5.11,26.56,16.01,37.13,16.01"/>
			<path class="st5" d="M81.43,126.02c-0.88-8.49,3.17-16.02,9.03-16.83c5.87-0.8,11.34,5.43,12.22,13.92s-3.17,16.02-9.04,16.83
				C87.77,140.73,82.3,134.51,81.43,126.02z"/>
		</g>
		<path class="st4" d="M142.84,165.65c9.3,0,16.84-3.08,16.84-6.86h-33.67C126.01,162.59,133.54,165.65,142.84,165.65z"/>
		<path class="st6" d="M184.34,117.56c2.15-5.48,6.39-8.99,10.89-8.38c0.01,0,0.02,0.01,0.04,0.01c2.04-6.3,2.77-13.8-0.03-21.75
			c-14.85-42.29,2.02-49.85,2.02-49.85s-16.43-0.74-29.18,9.82c8.79-13.62,12.74-17.15,12.74-17.15s-18.45-3.95-38.24,16.26
			c4.39-10.98,9.67-16.57,9.67-16.57S110.94,30.26,96,60.15c-8.52,17.03-9.17,35.49-7.11,49.43c0.5-0.18,1.02-0.33,1.56-0.4
			c1.94-0.26,3.85,0.25,5.55,1.36c0-6.44,0-12.14,0-13.04c7.91-3.52,16.26-7.91,15.82-25.49c18.45,0,28.57,0,28.57,0h29.44
			c0,0-1.32,19.78,14.5,24.61C184.34,104.87,184.34,112.15,184.34,117.56z"/>
	</g>
</g>
</svg>
